<?xml version="1.0" encoding="UTF-8" standalone="no"?>
<!DOCTYPE svg PUBLIC "-//W3C//DTD SVG 1.1//EN" "http://www.w3.org/Graphics/SVG/1.1/DTD/svg11.dtd">
<svg version="1.1" xmlns="http://www.w3.org/2000/svg" xmlns:xlink="http://www.w3.org/1999/xlink" preserveAspectRatio="xMidYMid meet" viewBox="0 0 640 640" width="100" height="100"><defs><path d="M5.98 225.11L58.6 166.59L111.23 106.28L163.86 166.59L217.92 225.12L217.96 225.12L217.96 413.91L5.98 413.91L5.98 225.11Z" id="a1Rvt0CwhT"></path><clipPath id="clipb1aKfEXqj"><use xlink:href="#a1Rvt0CwhT" opacity="1"></use></clipPath><path d="M426.3 225.21L426.33 225.21L426.33 414L214.35 414L214.35 225.24L214.33 225.24L214.35 225.22L214.35 225.21L214.36 225.21L266.97 166.67L319.6 106.36L372.23 166.67L426.3 225.21Z" id="bn21vEOIC"></path><clipPath id="clipax72KTO3"><use xlink:href="#bn21vEOIC" opacity="1"></use></clipPath><path d="M634.03 225.13L634.05 225.13L634.05 413.92L422.07 413.92L422.07 225.13L422.16 225.13L422.16 225.13L422.16 225.12L422.16 225.12L422.15 225.12L422.15 225.11L422.15 225.11L422.15 225.1L422.15 225.09L422.15 225.09L422.15 225.08L422.15 225.08L422.15 225.07L422.15 225.07L422.15 225.06L422.15 225.06L422.16 225.06L422.16 225.05L422.16 225.05L474.7 166.59L527.33 106.28L579.96 166.59L634.03 225.13Z" id="b6UoWfvg5"></path><clipPath id="clipljAKZfLH2"><use xlink:href="#b6UoWfvg5" opacity="1"></use></clipPath><path d="M10.34 441.79L26.89 441.79L56 499.43L85.11 441.79L101.66 441.79L101.66 525.7L85.11 525.7L85.11 467.9L62.98 514.68L49.02 514.68L26.89 468.41L26.89 525.7L10.34 525.7L10.34 441.79Z" id="a3FSQCr0c9"></path><path d="M144.1 498.63L144.1 525.7L161.06 525.7L161.06 498.63L187.97 461.29L171.62 461.29L151.68 487.42L129.55 461.29L113.39 461.29L144.1 498.63Z" id="edcNsIUT6"></path><path d="M216.7 441.28C203.01 445.31 200.73 455.15 199.5 459.77C198.27 464.4 202.31 476.63 211.78 480.9C221.26 485.17 235.12 491.4 238.28 493.93C241.44 496.47 245.47 502.73 238.28 510.19C231.09 517.65 219.5 514.37 216.7 514.07C214.83 513.87 209.62 512.38 201.08 509.59L198.45 519.29C205.35 522.57 211.43 524.51 216.7 525.11C224.59 526 241.26 527.64 251.26 514.81C261.27 501.99 255.83 493.63 251.26 488.11C246.7 482.6 232.49 477.67 223.19 473.65C213.89 469.62 213.89 464.55 214.42 460.56C214.94 456.58 222.84 450.23 232.14 450.83C238.34 451.22 242.9 452.27 245.82 453.96L252.14 443.67C237.64 439.39 225.82 438.59 216.7 441.28Z" id="bjGiVZm8w"></path><path d="M304.16 471.03C296.34 471.02 286.81 476.24 286.53 493.76C286.25 511.29 297.33 514.13 304.16 514.13C308.71 514.13 314.72 512.23 322.19 508.44C322.23 513.36 322.23 517.7 322.19 521.47C317.73 524.15 311.72 525.56 304.16 525.7C280.34 524.77 268.71 514.13 269.26 493.76C270.1 463.22 296 459.9 304.16 459.67C309.6 459.51 315.61 461.01 322.19 464.17L322.19 477.19C315.38 473.09 309.37 471.04 304.16 471.03Z" id="b5RGA8MkHb"></path><path d="M386.34 495.2L386.34 525.7L402.76 525.7C402.62 514.21 402.62 503.82 402.76 494.54C402.9 485.25 402.9 473.81 402.76 460.21L386.34 460.7L386.34 482.47L356.02 482.47L356.02 459.66L340.01 459.66L340.01 525.7L356.02 525.7L356.02 495.2L386.34 495.2Z" id="g1i693d3ms"></path><path d="M451.69 461.4L452.17 461.41L452.75 461.44L453.4 461.47L454.13 461.53L454.93 461.6L455.8 461.7L456.72 461.82L457.7 461.97L458.73 462.15L459.8 462.37L460.91 462.62L462.05 462.92L463.22 463.26L464.41 463.64L465.62 464.07L466.84 464.56L468.06 465.1L469.28 465.7L470.49 466.36L471.7 467.08L472.88 467.87L474.05 468.73L475.18 469.67L476.28 470.68L477.35 471.76L478.37 472.94L479.33 474.19L480.25 475.53L481.1 476.97L481.89 478.5L482.6 480.12L483.24 481.85L483.79 483.67L484.25 485.61L484.63 487.65L484.9 489.8L485.07 492.07L485.12 494.45L485.06 496.84L484.89 499.1L484.62 501.25L484.24 503.28L483.76 505.21L483.19 507.02L482.54 508.73L481.81 510.34L481.01 511.85L480.14 513.27L479.2 514.59L478.21 515.82L477.17 516.97L476.08 518.04L474.95 519.02L473.79 519.93L472.6 520.77L471.38 521.53L470.15 522.23L468.9 522.86L467.65 523.44L466.4 523.95L465.15 524.41L463.91 524.82L462.69 525.18L461.49 525.49L460.31 525.76L459.17 525.99L458.07 526.19L457.01 526.35L456 526.48L455.04 526.59L454.15 526.67L453.32 526.73L452.56 526.77L451.88 526.8L451.29 526.81L450.78 526.82L450.36 526.82L450.05 526.82L449.73 526.82L449.32 526.81L448.81 526.8L448.22 526.77L447.55 526.72L446.8 526.66L445.98 526.58L445.09 526.48L444.15 526.35L443.15 526.19L442.1 526L441.01 525.77L439.88 525.51L438.72 525.21L437.53 524.87L436.33 524.49L435.1 524.05L433.87 523.56L432.63 523.03L431.4 522.43L430.17 521.78L428.95 521.06L427.75 520.28L426.57 519.43L425.42 518.51L424.31 517.52L423.23 516.46L422.2 515.31L421.23 514.09L420.3 512.78L419.44 511.38L418.65 509.89L417.93 508.32L417.28 506.64L416.73 504.87L416.26 503L415.88 501.03L415.61 498.95L415.44 496.76L415.38 494.45L415.44 492.15L415.62 489.96L415.9 487.87L416.29 485.89L416.78 484.01L417.36 482.22L418.03 480.54L418.77 478.94L419.6 477.44L420.49 476.02L421.45 474.69L422.46 473.45L423.53 472.28L424.64 471.19L425.8 470.18L426.99 469.23L428.2 468.36L429.45 467.55L430.7 466.81L431.98 466.13L433.25 465.51L434.53 464.95L435.8 464.43L437.06 463.97L438.31 463.56L439.53 463.2L440.72 462.87L441.88 462.59L443 462.34L444.07 462.13L445.09 461.96L446.05 461.81L446.95 461.69L447.78 461.59L448.54 461.52L449.22 461.47L449.81 461.43L450.31 461.41L450.71 461.39L451 461.39L451.3 461.39L451.69 461.4ZM449.62 472.67L449.09 472.72L448.45 472.81L447.71 472.93L446.88 473.1L445.98 473.32L445.03 473.61L444.02 473.96L442.98 474.39L441.92 474.91L440.84 475.52L439.77 476.22L438.71 477.03L437.68 477.96L436.69 479L435.75 480.18L434.87 481.48L434.07 482.94L433.36 484.54L432.75 486.3L432.25 488.22L431.89 490.31L431.65 492.59L431.57 495.05L431.65 497.51L431.87 499.77L432.23 501.86L432.71 503.77L433.29 505.51L433.98 507.09L434.75 508.52L435.6 509.8L436.5 510.95L437.46 511.97L438.46 512.87L439.48 513.65L440.52 514.33L441.56 514.91L442.59 515.39L443.6 515.8L444.58 516.13L445.52 516.39L446.39 516.59L447.2 516.74L447.93 516.85L448.57 516.92L449.1 516.96L449.52 516.98L449.81 516.98L450.1 516.98L450.52 516.97L451.06 516.95L451.7 516.9L452.44 516.82L453.26 516.7L454.14 516.52L455.09 516.29L456.08 516L457.1 515.62L458.15 515.16L459.2 514.61L460.25 513.96L461.29 513.19L462.3 512.31L463.27 511.3L464.19 510.15L465.04 508.86L465.82 507.42L466.52 505.81L467.11 504.03L467.6 502.08L467.96 499.93L468.18 497.59L468.26 495.05L468.18 492.5L467.96 490.15L467.61 488L467.14 486.03L466.56 484.24L465.88 482.61L465.11 481.14L464.28 479.83L463.38 478.66L462.43 477.62L461.45 476.71L460.44 475.92L459.41 475.23L458.38 474.65L457.37 474.17L456.37 473.77L455.41 473.44L454.49 473.19L453.63 472.99L452.83 472.85L452.12 472.76L451.5 472.69L450.98 472.66L450.58 472.65L450.31 472.64L450.04 472.65L449.62 472.67Z" id="bXlgvf4Fm"></path><path d="" id="cfk36pb72"></path><path d="M581.52 525.7L598.3 525.7L635.84 525.7L635.84 510.41L598.32 510.41L598.3 459.66L581.52 459.66L581.52 525.7Z" id="i52iQbhXw"></path><path d="M533.42 460.27L533.91 460.29L534.48 460.31L535.13 460.35L535.86 460.41L536.66 460.48L537.53 460.58L538.45 460.7L539.43 460.85L540.46 461.03L541.53 461.25L542.64 461.5L543.79 461.8L544.96 462.13L546.15 462.52L547.35 462.95L548.57 463.44L549.79 463.98L551.01 464.57L552.23 465.23L553.43 465.96L554.61 466.75L555.78 467.61L556.91 468.54L558.02 469.55L559.08 470.64L560.1 471.81L561.07 473.07L561.98 474.41L562.83 475.85L563.62 477.37L564.33 479L564.97 480.72L565.52 482.55L565.99 484.48L566.36 486.53L566.63 488.68L566.8 490.95L566.86 493.33L566.8 495.72L566.63 497.98L566.35 500.13L565.97 502.16L565.49 504.08L564.93 505.9L564.28 507.61L563.54 509.22L562.74 510.73L561.87 512.14L560.93 513.47L559.94 514.7L558.9 515.85L557.81 516.92L556.68 517.9L555.52 518.81L554.33 519.65L553.11 520.41L551.88 521.11L550.64 521.74L549.38 522.32L548.13 522.83L546.88 523.29L545.64 523.7L544.42 524.06L543.22 524.37L542.05 524.64L540.91 524.87L539.8 525.07L538.74 525.23L537.73 525.36L536.78 525.46L535.88 525.55L535.05 525.61L534.3 525.65L533.62 525.68L533.02 525.69L532.51 525.7L532.09 525.7L531.78 525.7L531.47 525.7L531.05 525.69L530.55 525.67L529.95 525.64L529.28 525.6L528.53 525.54L527.71 525.46L526.82 525.35L525.88 525.22L524.88 525.07L523.83 524.88L522.74 524.65L521.61 524.39L520.45 524.09L519.27 523.75L518.06 523.36L516.84 522.93L515.6 522.44L514.37 521.9L513.13 521.31L511.9 520.65L510.68 519.94L509.48 519.16L508.3 518.31L507.16 517.39L506.04 516.4L504.97 515.33L503.94 514.19L502.96 512.96L502.04 511.65L501.17 510.26L500.38 508.77L499.66 507.19L499.02 505.52L498.46 503.75L497.99 501.88L497.61 499.9L497.34 497.82L497.17 495.63L497.11 493.33L497.17 491.03L497.35 488.84L497.63 486.75L498.02 484.77L498.51 482.88L499.09 481.1L499.76 479.41L500.51 477.82L501.33 476.32L502.22 474.9L503.18 473.57L504.2 472.33L505.26 471.16L506.38 470.07L507.53 469.05L508.72 468.11L509.94 467.24L511.18 466.43L512.44 465.69L513.71 465.01L514.99 464.39L516.26 463.82L517.54 463.31L518.8 462.85L520.04 462.44L521.26 462.07L522.45 461.75L523.61 461.47L524.73 461.22L525.8 461.01L526.82 460.84L527.79 460.69L528.69 460.57L529.52 460.47L530.27 460.4L530.95 460.34L531.54 460.31L532.04 460.28L532.44 460.27L532.74 460.27L533.03 460.27L533.42 460.27ZM531.36 471.55L530.82 471.6L530.18 471.68L529.44 471.81L528.62 471.98L527.72 472.2L526.76 472.49L525.75 472.84L524.71 473.27L523.65 473.79L522.57 474.39L521.5 475.1L520.44 475.91L519.41 476.84L518.42 477.88L517.48 479.05L516.6 480.36L515.8 481.81L515.09 483.41L514.48 485.17L513.99 487.1L513.62 489.19L513.39 491.46L513.31 493.93L513.38 496.38L513.61 498.65L513.96 500.74L514.44 502.64L515.03 504.39L515.71 505.97L516.48 507.4L517.33 508.68L518.24 509.83L519.19 510.85L520.19 511.75L521.21 512.53L522.25 513.21L523.29 513.78L524.32 514.27L525.34 514.68L526.31 515.01L527.25 515.27L528.13 515.47L528.94 515.62L529.66 515.73L530.3 515.8L530.83 515.83L531.25 515.85L531.54 515.86L531.83 515.86L532.25 515.85L532.79 515.83L533.43 515.78L534.17 515.7L534.99 515.57L535.88 515.4L536.82 515.17L537.81 514.87L538.83 514.5L539.88 514.04L540.93 513.49L541.98 512.83L543.02 512.07L544.03 511.19L545 510.18L545.92 509.03L546.77 507.74L547.56 506.29L548.25 504.69L548.84 502.91L549.33 500.95L549.69 498.81L549.91 496.47L549.99 493.93L549.92 491.38L549.69 489.03L549.34 486.88L548.87 484.91L548.29 483.11L547.61 481.49L546.85 480.02L546.01 478.71L545.11 477.53L544.16 476.5L543.18 475.59L542.17 474.79L541.14 474.11L540.12 473.53L539.1 473.05L538.1 472.64L537.14 472.32L536.22 472.07L535.36 471.87L534.57 471.73L533.85 471.63L533.23 471.57L532.72 471.54L532.32 471.52L532.04 471.52L531.77 471.53L531.36 471.55Z" id="c5h477K6Zx"></path><path d="M78.55 546.74L573.17 546.74L573.17 576.09L78.55 576.09L78.55 546.74Z" id="d22b94kNNm"></path><path d="M607.9 546.74L635.84 546.74L635.84 577.8L607.9 577.8L607.9 546.74Z" id="b1Inlsuz6Y"></path><path d="M79.21 576.09L635.84 578.09L635.84 546.74L79.21 546.74L10.34 561.42L79.21 576.09Z" id="e3vii4h0rm"></path><path d="M78.55 576.09L78.55 546.74" id="aNIkrvB0s"></path><path d="M573.17 561.42L78.55 561.42" id="ggGVdmvV"></path><path d="M573.17 578.09L573.17 546.74" id="b1QwmsAEkP"></path><path d="M607.74 578.09L607.74 546.74" id="a21Q3dQ5HQ"></path><path d="M582.08 578.09L582.08 546.74" id="eL3LIrwE4"></path><path d="M597.23 578.09L597.23 546.74" id="h1h1eyXii7"></path><path d="M597.23 556.59L582.08 556.59" id="bqZL0trka"></path><path d="M596.81 562.42L581.67 562.42" id="a1IROh6KEL"></path><path d="M597.99 568.09L582.85 568.09" id="alCxQvaR1"></path><path d="M597.99 573.53L582.85 573.53" id="b3HRbpP9Jn"></path><path d="M596.81 551.13L581.67 551.13" id="d1F10pxWdF"></path><path d="M12.07 561.42L37.57 567.02L37.57 555.2L12.07 561.42Z" id="b4FTaz0qr"></path><path d="M264.85 37.27L319.32 37.27L319.32 69.66L264.85 69.66L264.85 37.27Z" id="b1kA5BIjLx"></path><path d="M318.09 36.43L320.33 36.43L320.33 109.2L318.09 109.2L318.09 36.43Z" id="a2IScmNdIf"></path></defs><g><g><g><use xlink:href="#a1Rvt0CwhT" opacity="1" fill="#fb6542" fill-opacity="1"></use><g clip-path="url(#clipb1aKfEXqj)"><use xlink:href="#a1Rvt0CwhT" opacity="1" fill-opacity="0" stroke="#000000" stroke-width="4" stroke-opacity="1"></use></g></g><g><use xlink:href="#bn21vEOIC" opacity="1" fill="#ffbb00" fill-opacity="1"></use><g clip-path="url(#clipax72KTO3)"><use xlink:href="#bn21vEOIC" opacity="1" fill-opacity="0" stroke="#000000" stroke-width="4" stroke-opacity="1"></use></g></g><g><use xlink:href="#b6UoWfvg5" opacity="1" fill="#375e97" fill-opacity="1"></use><g clip-path="url(#clipljAKZfLH2)"><use xlink:href="#b6UoWfvg5" opacity="1" fill-opacity="0" stroke="#000000" stroke-width="4" stroke-opacity="1"></use></g></g><g><g><use xlink:href="#a3FSQCr0c9" opacity="1" fill="#000000" fill-opacity="1"></use><g><use xlink:href="#a3FSQCr0c9" opacity="1" fill-opacity="0" stroke="#151011" stroke-width="2" stroke-opacity="1"></use></g></g><g><use xlink:href="#edcNsIUT6" opacity="1" fill="#000000" fill-opacity="1"></use><g><use xlink:href="#edcNsIUT6" opacity="1" fill-opacity="0" stroke="#151011" stroke-width="2" stroke-opacity="1"></use></g></g><g><use xlink:href="#bjGiVZm8w" opacity="1" fill="#000000" fill-opacity="1"></use><g><use xlink:href="#bjGiVZm8w" opacity="1" fill-opacity="0" stroke="#151011" stroke-width="2" stroke-opacity="1"></use></g></g><g><use xlink:href="#b5RGA8MkHb" opacity="1" fill="#000000" fill-opacity="1"></use><g><use xlink:href="#b5RGA8MkHb" opacity="1" fill-opacity="0" stroke="#151011" stroke-width="2" stroke-opacity="1"></use></g></g><g><use xlink:href="#g1i693d3ms" opacity="1" fill="#000000" fill-opacity="1"></use><g><use xlink:href="#g1i693d3ms" opacity="1" fill-opacity="0" stroke="#151011" stroke-width="2" stroke-opacity="1"></use></g></g><g><use xlink:href="#bXlgvf4Fm" opacity="1" fill="#000000" fill-opacity="1"></use><g><use xlink:href="#bXlgvf4Fm" opacity="1" fill-opacity="0" stroke="#151011" stroke-width="2" stroke-opacity="1"></use></g></g><g><use xlink:href="#cfk36pb72" opacity="1" fill="#000000" fill-opacity="1"></use><g><use xlink:href="#cfk36pb72" opacity="1" fill-opacity="0" stroke="#151011" stroke-width="2" stroke-opacity="1"></use></g></g><g><use xlink:href="#i52iQbhXw" opacity="1" fill="#000000" fill-opacity="1"></use><g><use xlink:href="#i52iQbhXw" opacity="1" fill-opacity="0" stroke="#151011" stroke-width="2" stroke-opacity="1"></use></g></g><g><use xlink:href="#c5h477K6Zx" opacity="1" fill="#000000" fill-opacity="1"></use><g><use xlink:href="#c5h477K6Zx" opacity="1" fill-opacity="0" stroke="#151011" stroke-width="2" stroke-opacity="1"></use></g></g></g><g><g><use xlink:href="#d22b94kNNm" opacity="1" fill="#ffbb00" fill-opacity="1"></use></g><g><use xlink:href="#b1Inlsuz6Y" opacity="1" fill="#fb6542" fill-opacity="1"></use></g><g><g><use xlink:href="#e3vii4h0rm" opacity="1" fill-opacity="0" stroke="#151011" stroke-width="2" stroke-opacity="1"></use></g></g><g><g><use xlink:href="#aNIkrvB0s" opacity="1" fill-opacity="0" stroke="#151011" stroke-width="2" stroke-opacity="1"></use></g></g><g><g><use xlink:href="#ggGVdmvV" opacity="1" fill-opacity="0" stroke="#151011" stroke-width="2" stroke-opacity="1"></use></g></g><g><g><use xlink:href="#b1QwmsAEkP" opacity="1" fill-opacity="0" stroke="#151011" stroke-width="2" stroke-opacity="1"></use></g></g><g><g><use xlink:href="#a21Q3dQ5HQ" opacity="1" fill-opacity="0" stroke="#151011" stroke-width="2" stroke-opacity="1"></use></g></g><g><g><use xlink:href="#eL3LIrwE4" opacity="1" fill-opacity="0" stroke="#151011" stroke-width="2" stroke-opacity="1"></use></g></g><g><g><use xlink:href="#h1h1eyXii7" opacity="1" fill-opacity="0" stroke="#151011" stroke-width="2" stroke-opacity="1"></use></g></g><g><g><use xlink:href="#bqZL0trka" opacity="1" fill-opacity="0" stroke="#151011" stroke-width="2" stroke-opacity="1"></use></g></g><g><g><use xlink:href="#a1IROh6KEL" opacity="1" fill-opacity="0" stroke="#151011" stroke-width="2" stroke-opacity="1"></use></g></g><g><g><use xlink:href="#alCxQvaR1" opacity="1" fill-opacity="0" stroke="#151011" stroke-width="2" stroke-opacity="1"></use></g></g><g><g><use xlink:href="#b3HRbpP9Jn" opacity="1" fill-opacity="0" stroke="#151011" stroke-width="2" stroke-opacity="1"></use></g></g><g><g><use xlink:href="#d1F10pxWdF" opacity="1" fill-opacity="0" stroke="#151011" stroke-width="2" stroke-opacity="1"></use></g></g><g><use xlink:href="#b4FTaz0qr" opacity="1" fill="#000000" fill-opacity="1"></use></g></g><g><g><use xlink:href="#b1kA5BIjLx" opacity="1" fill="#ffbb00" fill-opacity="1"></use><g><use xlink:href="#b1kA5BIjLx" opacity="1" fill-opacity="0" stroke="#000000" stroke-width="2" stroke-opacity="1"></use></g></g><g><use xlink:href="#a2IScmNdIf" opacity="1" fill="#020101" fill-opacity="1"></use><g><use xlink:href="#a2IScmNdIf" opacity="1" fill-opacity="0" stroke="#000000" stroke-width="1" stroke-opacity="1"></use></g></g></g></g></g></svg>