<?xml version="1.0" standalone="no"?>
<!DOCTYPE svg PUBLIC "-//W3C//DTD SVG 20010904//EN"
 "http://www.w3.org/TR/2001/REC-SVG-20010904/DTD/svg10.dtd">
<svg version="1.0" xmlns="http://www.w3.org/2000/svg"
 width="700.000000pt" height="700.000000pt" viewBox="0 0 700.000000 700.000000"
 preserveAspectRatio="xMidYMid meet">
<metadata>
Created by potrace 1.11, written by Peter Selinger 2001-2013
</metadata>
<g transform="translate(0.000000,700.000000) scale(0.100000,-0.100000)"
fill="#000000" stroke="none">
<path d="M2892 6600 c-4 -3 -7 -87 -7 -188 l0 -182 35 -1 c19 0 151 -1 293 -1
l257 -1 1 -41 c0 -22 1 -116 1 -207 l1 -166 -314 -359 c-333 -380 -333 -380
-383 -434 -17 -19 -72 -80 -121 -135 -49 -55 -92 -102 -95 -105 -3 -3 -45 -50
-95 -105 -49 -55 -93 -102 -98 -104 -6 -2 -28 16 -49 40 -22 24 -85 93 -141
153 -56 61 -129 139 -162 175 -33 36 -89 97 -125 136 -75 81 -154 169 -190
211 -23 27 -402 461 -460 527 l-25 28 -18 -23 c-10 -13 -33 -39 -50 -58 -18
-19 -106 -120 -197 -225 -91 -104 -179 -206 -196 -225 -17 -19 -69 -78 -115
-130 -46 -52 -88 -100 -94 -106 -5 -6 -39 -43 -75 -84 -36 -40 -70 -78 -76
-84 -5 -6 -34 -38 -64 -71 -29 -33 -90 -100 -135 -150 -45 -49 -94 -103 -107
-120 l-25 -30 0 -1033 0 -1032 3436 2 3436 3 1 1032 1 1032 -36 38 c-20 21
-88 94 -151 163 -63 69 -135 148 -161 175 -26 28 -60 64 -75 81 -150 163 -212
232 -279 309 -43 50 -92 106 -109 125 -17 19 -58 67 -91 105 -33 39 -65 75
-71 80 -6 6 -37 41 -70 80 -32 38 -75 87 -94 107 l-35 38 -97 -112 c-53 -62
-105 -122 -115 -133 -10 -11 -76 -87 -148 -170 -71 -82 -132 -152 -135 -155
-3 -3 -23 -25 -44 -50 -35 -40 -153 -172 -213 -237 -39 -44 -145 -162 -165
-185 -11 -13 -52 -59 -91 -102 -40 -43 -82 -91 -95 -105 l-22 -26 -51 55 c-28
30 -92 100 -143 155 -50 54 -121 131 -157 170 -36 38 -90 97 -120 129 -30 33
-63 69 -74 80 -11 12 -49 55 -85 96 -36 41 -69 80 -75 86 -5 6 -35 39 -65 74
-89 103 -208 240 -274 314 -33 38 -66 76 -73 85 -9 12 -12 113 -13 406 l0 390
-306 0 c-168 0 -309 -2 -312 -5z"/>
<path d="M2365 2183 c-45 -13 -97 -44 -133 -80 -22 -21 -62 -117 -62 -149 0
-94 66 -187 168 -235 277 -130 297 -144 296 -207 0 -50 -36 -97 -91 -118 -57
-22 -161 -14 -268 20 -43 14 -80 24 -81 23 -3 -3 -34 -110 -34 -118 0 -11 121
-56 180 -67 90 -17 199 -12 268 10 154 51 248 210 194 330 -37 85 -87 124
-237 187 -167 70 -200 93 -208 146 -10 71 65 129 168 129 68 0 113 -7 143 -23
18 -9 24 -7 40 17 26 37 64 104 60 107 -2 2 -32 11 -68 21 -89 23 -269 27
-335 7z"/>
<path d="M106 2168 c-3 -7 -4 -218 -3 -468 l2 -455 94 -5 c51 -3 96 -3 100 0
4 3 7 132 6 288 0 155 2 282 6 282 3 0 18 -28 34 -62 16 -35 64 -136 107 -225
l77 -163 84 0 83 0 44 93 c24 50 71 151 105 222 34 72 64 137 68 145 3 8 6
-119 6 -282 l1 -298 100 0 c55 0 100 3 101 8 3 25 4 909 1 920 -3 8 -32 12
-101 12 l-96 0 -156 -309 -156 -308 -156 306 -155 306 -96 3 c-72 2 -97 -1
-100 -10z"/>
<path d="M3310 1983 c-190 -21 -311 -110 -358 -263 -18 -59 -21 -156 -7 -225
35 -164 164 -249 380 -249 103 -1 204 23 206 47 5 51 4 157 -2 157 -3 0 -33
-12 -65 -26 -107 -47 -200 -45 -259 7 -51 45 -71 130 -53 229 29 163 143 216
302 142 38 -18 71 -32 75 -32 3 0 6 36 6 80 l1 79 -51 21 c-54 22 -135 37
-175 33z"/>
<path d="M3710 1950 c-1 -112 -1 -539 0 -617 l0 -93 98 0 98 0 -1 165 c-1 142
1 165 15 166 110 6 290 2 293 -6 2 -5 3 -81 2 -167 l0 -157 93 -3 c55 -2 97 1
101 7 4 6 7 172 6 370 l0 360 -80 -2 c-44 0 -89 -2 -100 -2 -20 -1 -21 -7 -20
-116 0 -63 -2 -116 -5 -116 -3 -1 -71 -2 -152 -3 -98 -2 -148 1 -149 8 -1 6
-2 59 -3 118 0 58 -5 110 -9 115 -5 4 -49 8 -98 8 l-89 0 0 -35z"/>
<path d="M6355 1981 c-3 -2 -5 -170 -5 -372 l0 -367 33 -3 c17 -2 156 -2 307
1 l275 5 0 92 1 93 -206 2 -205 3 0 272 c0 150 -2 273 -5 274 -20 4 -192 4
-195 0z"/>
<path d="M5770 1973 c-62 -10 -159 -47 -203 -79 -95 -69 -141 -169 -139 -299
2 -141 67 -250 182 -306 129 -63 305 -63 429 0 57 29 104 80 137 147 27 54 29
68 29 169 0 98 -3 116 -27 167 -45 97 -138 169 -246 193 -40 8 -128 13 -162 8z
m130 -163 c89 -45 126 -175 90 -309 -29 -109 -149 -161 -256 -112 -71 32 -108
106 -107 212 1 101 36 169 105 203 62 31 115 33 168 6z"/>
<path d="M1227 1956 c6 -11 83 -107 93 -116 20 -19 229 -279 237 -295 5 -11 9
-84 9 -162 l-1 -143 102 0 c100 0 103 1 104 23 0 12 0 79 -1 148 l-1 126 107
149 c59 82 128 179 154 215 l48 66 -103 -1 -103 -1 -38 -50 c-21 -27 -40 -52
-43 -55 -4 -3 -33 -41 -65 -85 -33 -44 -61 -82 -62 -84 -2 -2 -13 7 -24 20
-12 13 -31 35 -43 49 -13 14 -57 66 -99 115 l-76 91 -100 0 c-68 0 -99 -3 -95
-10z"/>
<path d="M4846 1953 c-142 -29 -250 -113 -291 -224 -30 -82 -27 -216 6 -289
35 -76 77 -121 146 -157 74 -38 140 -55 223 -54 78 1 106 6 171 31 108 40 177
118 202 225 31 134 1 279 -76 362 -47 51 -145 101 -214 109 -26 3 -59 7 -73 8
-14 2 -56 -3 -94 -11z m182 -170 c49 -39 73 -91 79 -168 14 -168 -75 -275
-210 -254 -102 16 -159 89 -163 206 -5 117 31 191 110 228 67 32 134 28 184
-12z"/>
<path d="M810 1019 c-19 -4 -48 -10 -65 -13 -16 -3 -73 -15 -125 -27 -52 -11
-106 -23 -120 -25 -14 -3 -32 -7 -40 -9 -8 -2 -28 -7 -45 -10 -92 -17 -297
-63 -302 -69 -8 -8 0 -16 23 -21 11 -2 62 -13 114 -25 52 -11 115 -25 140 -30
122 -25 335 -71 396 -85 73 -17 8 -16 3529 -29 991 -4 2619 -8 2640 -7 7 1 11
63 11 181 l-1 180 -3060 -1 c-1683 -1 -3076 -5 -3095 -10z m5545 -169 l1 -160
-38 0 -38 0 0 160 0 160 38 0 37 0 0 -160z m165 146 c0 -10 -17 -13 -70 -13
-52 0 -70 3 -70 14 0 10 18 13 70 13 52 0 70 -3 70 -14z m116 -146 l-1 -160
-46 0 -47 0 0 160 0 160 47 0 47 0 0 -160z m-5787 10 c-1 -104 -4 -140 -13
-140 -10 0 -151 28 -226 45 -57 13 -168 37 -180 39 -20 4 -27 104 -8 110 39
13 377 84 401 85 l28 1 -2 -140z m5671 81 c0 -16 -8 -18 -70 -17 -39 1 -70 4
-70 9 0 4 0 12 0 17 0 6 30 10 70 10 61 0 70 -2 70 -19z m0 -61 c0 -18 -7 -20
-74 -20 -69 0 -74 1 -69 20 5 18 14 20 74 20 62 0 69 -2 69 -20z m-2 -62 c3
-14 -3 -18 -25 -19 -15 0 -47 -1 -71 -2 -37 -2 -42 0 -42 20 0 21 4 22 67 20
56 -2 68 -5 71 -19z m2 -60 c0 -14 -9 -18 -37 -19 -21 0 -54 -1 -75 -2 -20 -1
-35 0 -34 3 2 3 6 12 9 21 4 13 19 16 71 15 56 -1 66 -3 66 -18z m0 -55 c0
-10 -20 -13 -76 -13 -64 0 -75 2 -65 14 16 19 141 18 141 -1z m-1073 -9 c-3
-3 -12 -4 -19 -1 -8 3 -5 6 6 6 11 1 17 -2 13 -5z m176 -1 c-7 -2 -21 -2 -30
0 -10 3 -4 5 12 5 17 0 24 -2 18 -5z m44 1 c-3 -3 -12 -4 -19 -1 -8 3 -5 6 6
6 11 1 17 -2 13 -5z m60 0 c-3 -3 -12 -4 -19 -1 -8 3 -5 6 6 6 11 1 17 -2 13
-5z m40 0 c-3 -3 -12 -4 -19 -1 -8 3 -5 6 6 6 11 1 17 -2 13 -5z m386 -1 c-62
-2 -165 -2 -230 0 -65 1 -14 3 112 3 127 0 180 -2 118 -3z"/>
</g>
</svg>
